<mxfile host="Electron" agent="Mozilla/5.0 (Windows NT 10.0; Win64; x64) AppleWebKit/537.36 (KHTML, like Gecko) draw.io/26.2.2 Chrome/134.0.6998.178 Electron/35.1.2 Safari/537.36" border="50" scale="3" compressed="false" locked="false" version="26.2.2">
  <diagram name="Blank" id="YmL12bMKpDGza6XwsDPr">
    <mxGraphModel dx="1397" dy="362" grid="0" gridSize="10" guides="1" tooltips="1" connect="1" arrows="1" fold="1" page="0" pageScale="1" pageWidth="827" pageHeight="1169" background="none" math="1" shadow="0">
      <root>
        <mxCell id="X5NqExCQtvZxIxQ7pmgY-0" />
        <mxCell id="1" parent="X5NqExCQtvZxIxQ7pmgY-0" />
        <object label="" placeholders="1" id="Gr0Zq-AI6Quabplr0KPa-103">
          <mxCell style="image;html=1;image=img/lib/clip_art/computers/Laptop_128x128.png;fontFamily=Helvetica;fontSize=12;fontColor=#0A3DA3;align=center;strokeWidth=2;fillColor=#EDF5FF;fontStyle=1;verticalAlign=bottom;strokeColor=none;labelBackgroundColor=#EDF5FF;labelBorderColor=none;labelPosition=center;verticalLabelPosition=top;" parent="1" vertex="1">
            <mxGeometry x="-523.45" y="480" width="80" height="80" as="geometry" />
          </mxCell>
        </object>
        <mxCell id="YcL9H07bTUGaqKfZckYU-1" value="" style="points=[];aspect=fixed;html=1;align=center;shadow=0;dashed=0;fillColor=#FF6A00;strokeColor=none;shape=mxgraph.alibaba_cloud.agw_aligateway;" parent="1" vertex="1">
          <mxGeometry x="-507" y="378" width="47.1" height="39.6" as="geometry" />
        </mxCell>
        <mxCell id="YcL9H07bTUGaqKfZckYU-2" value="" style="points=[];aspect=fixed;html=1;align=center;shadow=0;dashed=0;fillColor=#FF6A00;strokeColor=none;shape=mxgraph.alibaba_cloud.agw_aligateway;" parent="1" vertex="1">
          <mxGeometry x="-750" y="378" width="47.1" height="39.6" as="geometry" />
        </mxCell>
        <mxCell id="YcL9H07bTUGaqKfZckYU-3" value="" style="points=[];aspect=fixed;html=1;align=center;shadow=0;dashed=0;fillColor=#FF6A00;strokeColor=none;shape=mxgraph.alibaba_cloud.agw_aligateway;" parent="1" vertex="1">
          <mxGeometry x="-260" y="378" width="47.1" height="39.6" as="geometry" />
        </mxCell>
        <mxCell id="YcL9H07bTUGaqKfZckYU-29" value="" style="html=1;labelBackgroundColor=#ffffff;startArrow=none;startFill=0;startSize=6;endArrow=classic;endFill=1;endSize=6;jettySize=auto;orthogonalLoop=1;strokeWidth=1;dashed=1;fontSize=14;rounded=0;" parent="1" edge="1">
          <mxGeometry width="60" height="60" relative="1" as="geometry">
            <mxPoint x="-460" y="388" as="sourcePoint" />
            <mxPoint x="-260" y="388" as="targetPoint" />
          </mxGeometry>
        </mxCell>
        <mxCell id="YcL9H07bTUGaqKfZckYU-33" value="сигнал 2" style="edgeLabel;html=1;align=center;verticalAlign=middle;resizable=0;points=[];" parent="YcL9H07bTUGaqKfZckYU-29" connectable="0" vertex="1">
          <mxGeometry x="-0.0343" relative="1" as="geometry">
            <mxPoint as="offset" />
          </mxGeometry>
        </mxCell>
        <mxCell id="YcL9H07bTUGaqKfZckYU-30" value="" style="html=1;labelBackgroundColor=#ffffff;startArrow=none;startFill=0;startSize=6;endArrow=classic;endFill=1;endSize=6;jettySize=auto;orthogonalLoop=1;strokeWidth=1;dashed=1;fontSize=14;rounded=0;" parent="1" edge="1">
          <mxGeometry width="60" height="60" relative="1" as="geometry">
            <mxPoint x="-507" y="386" as="sourcePoint" />
            <mxPoint x="-707" y="386" as="targetPoint" />
          </mxGeometry>
        </mxCell>
        <mxCell id="YcL9H07bTUGaqKfZckYU-31" value="сигнал 2" style="edgeLabel;html=1;align=center;verticalAlign=middle;resizable=0;points=[];" parent="YcL9H07bTUGaqKfZckYU-30" connectable="0" vertex="1">
          <mxGeometry x="-0.6534" y="1" relative="1" as="geometry">
            <mxPoint x="-63" y="-2" as="offset" />
          </mxGeometry>
        </mxCell>
        <mxCell id="W_Z_m_9deG7KfsARnxg5-1" value="" style="endArrow=none;html=1;rounded=0;" parent="1" edge="1">
          <mxGeometry width="50" height="50" relative="1" as="geometry">
            <mxPoint x="-507" y="411" as="sourcePoint" />
            <mxPoint x="-498" y="545" as="targetPoint" />
            <Array as="points">
              <mxPoint x="-542" y="411" />
              <mxPoint x="-542" y="545" />
            </Array>
          </mxGeometry>
        </mxCell>
        <mxCell id="R9P_jwOP5-30LdMIKtX9-1" value="&lt;font style=&quot;font-size: 9px;&quot;&gt;Якорь 1&lt;/font&gt;" style="edgeLabel;html=1;align=center;verticalAlign=middle;resizable=0;points=[];" parent="1" connectable="0" vertex="1">
          <mxGeometry x="-728" y="425" as="geometry" />
        </mxCell>
        <mxCell id="R9P_jwOP5-30LdMIKtX9-2" value="&lt;span style=&quot;font-size: 10px;&quot;&gt;Мобильное устройство&lt;/span&gt;" style="edgeLabel;html=1;align=center;verticalAlign=middle;resizable=0;points=[];" parent="1" connectable="0" vertex="1">
          <mxGeometry x="-483.4480952380952" y="425" as="geometry" />
        </mxCell>
        <mxCell id="R9P_jwOP5-30LdMIKtX9-3" value="&lt;font style=&quot;font-size: 9px;&quot;&gt;Якорь 2&lt;/font&gt;" style="edgeLabel;html=1;align=center;verticalAlign=middle;resizable=0;points=[];" parent="1" connectable="0" vertex="1">
          <mxGeometry x="-236.44809523809516" y="425" as="geometry" />
        </mxCell>
      </root>
    </mxGraphModel>
  </diagram>
</mxfile>
